<svg width="1039" height="149" viewBox="0 0 1039 149" fill="none" xmlns="http://www.w3.org/2000/svg">
<path d="M143.5 36.3333C133.108 36.3333 127.303 46.6533 129.668 54.3216L104.227 79.835C102.077 79.19 98.9233 79.19 96.7733 79.835L78.4983 61.56C80.935 53.8916 75.13 43.5 64.6666 43.5C54.275 43.5 48.3983 53.82 50.835 61.56L18.155 94.1683C10.4866 91.8033 0.166626 97.6083 0.166626 108C0.166626 115.883 6.61663 122.333 14.5 122.333C24.8916 122.333 30.6966 112.013 28.3316 104.345L60.94 71.665C63.09 72.31 66.2433 72.31 68.3933 71.665L86.6683 89.94C84.2316 97.6083 90.0366 108 100.5 108C110.892 108 116.768 97.68 114.332 89.94L139.845 64.4983C147.513 66.8633 157.833 61.0583 157.833 50.6666C157.833 42.7833 151.383 36.3333 143.5 36.3333Z" fill="white"/>
<path d="M100.5 43.5L107.237 28.665L122 22L107.237 15.335L100.5 0.5L93.9066 15.335L79 22L93.9066 28.665L100.5 43.5ZM18.0833 57.8333L21.6666 43.5L36 39.9167L21.6666 36.3333L18.0833 22L14.5 36.3333L0.166626 39.9167L14.5 43.5L18.0833 57.8333Z" fill="white"/>
<path d="M294.08 62.312C294.08 55.784 294.08 49.64 291.392 45.128C285.824 36.2 272.768 35.72 267.104 35.72H228.512C221.792 35.912 208.448 35.912 201.632 42.536C194.912 49.256 195.488 59.336 195.488 65.96V81.896C195.488 89.864 195.488 99.752 202.016 106.568C209.024 113.864 220.256 113 225.92 113H266.528C269.792 112.904 284.384 112.616 289.568 107.336C295.328 101.384 294.656 89.864 294.656 85.448V68.84H242.144V84.488H271.04C271.04 87.176 271.328 89 270.368 90.728C268.064 94.664 262.016 94.088 259.424 94.088H233.6C229.856 94.088 223.904 94.664 220.64 89.864C218.432 86.6 218.528 63.272 220.352 59.912C223.52 53.96 229.76 54.632 239.168 54.632H259.424C266.816 54.632 270.464 53.96 271.232 62.312H294.08ZM336.314 35.72L295.13 113H321.05L328.058 99.08H375.482L383.162 113H408.794L366.938 35.72H336.314ZM336.986 82.856L351.578 54.248L366.65 82.856H336.986ZM417.133 35.72V113H440.557V57.608L471.661 113H489.421L521.389 57.32V113H544.813V35.72H507.181L480.493 85.16L453.805 35.72H417.133ZM557.743 35.72V113H642.799V94.088H581.167V82.28H638.287V66.824H581.167V54.632H641.359V35.72H557.743ZM774.643 62.312C774.643 55.784 774.643 49.64 771.955 45.128C766.387 36.2 753.331 35.72 747.667 35.72H709.075C702.355 35.912 689.011 35.912 682.195 42.536C675.475 49.256 676.051 59.336 676.051 65.96V81.896C676.051 89.864 676.051 99.752 682.579 106.568C689.587 113.864 700.819 113 706.483 113H747.091C750.355 112.904 764.947 112.616 770.131 107.336C775.891 101.384 775.219 89.864 775.219 85.448V68.84H722.707V84.488H751.603C751.603 87.176 751.891 89 750.931 90.728C748.627 94.664 742.579 94.088 739.987 94.088H714.163C710.419 94.088 704.467 94.664 701.203 89.864C698.995 86.6 699.091 63.272 700.915 59.912C704.083 53.96 710.323 54.632 719.731 54.632H739.987C747.379 54.632 751.027 53.96 751.795 62.312H774.643ZM855.202 35.72H788.194V113H811.618V92.936H843.97C846.658 92.936 853.378 92.648 855.874 95.144C858.658 97.64 858.178 104.168 858.178 113H881.602V107.144C881.602 100.808 882.466 89.576 875.266 85.16C873.634 84.2 871.81 83.624 869.026 82.76C874.498 80.648 879.105 79.304 881.026 71.912C882.754 65.96 882.466 48.488 877.762 42.44C872.29 35.336 863.554 35.72 855.202 35.72ZM811.618 73.064V54.632H845.41C848.674 54.632 856.066 54.056 858.37 58.472C859.618 60.872 859.618 67.4 858.37 69.416C855.778 73.352 848.482 73.064 845.218 73.064H811.618ZM894.399 35.72V113H917.823V35.72H894.399ZM930.6 35.72V113H997.608C1005.38 113 1019.5 112.712 1026.6 105.8C1033.13 99.272 1032.94 89.576 1032.94 82.28V67.016C1032.94 58.088 1032.94 49.544 1026.31 42.824C1018.63 35.144 1006.73 35.72 997.992 35.72H930.6ZM954.024 94.088V54.632H987.912C996.168 54.632 1004.62 53.96 1007.88 60.008C1009.7 63.56 1009.8 84.872 1007.69 88.424C1003.85 94.568 997.8 94.088 989.352 94.088H954.024Z" fill="white"/>
</svg>
